<?xml version="1.0" encoding="UTF-8"?>
<!DOCTYPE svg PUBLIC "-//W3C//DTD SVG 1.1//EN" "http://www.w3.org/Graphics/SVG/1.1/DTD/svg11.dtd">
<!-- Creator: CorelDRAW 2020 (64 Bit) -->
<svg xmlns="http://www.w3.org/2000/svg" xml:space="preserve" width="500mm" height="150mm" version="1.1" style="shape-rendering:geometricPrecision; text-rendering:geometricPrecision; image-rendering:optimizeQuality; fill-rule:evenodd; clip-rule:evenodd"
viewBox="0 0 50000 15000"
 xmlns:xlink="http://www.w3.org/1999/xlink"
 xmlns:xodm="http://www.corel.com/coreldraw/odm/2003">
 <defs>
  <style type="text/css">
   <![CDATA[
    .str1 {stroke:#282829;stroke-width:200;stroke-miterlimit:22.9256}
    .str0 {stroke:#282829;stroke-width:300;stroke-miterlimit:22.9256}
    .fil2 {fill:none}
    .fil1 {fill:#FEFEFE}
    .fil6 {fill:#282829}
    .fil5 {fill:#87FAF0}
    .fil3 {fill:#F564E5}
    .fil4 {fill:#F5D964}
    .fil0 {fill:#FEFEFE;fill-rule:nonzero}
   ]]>
  </style>
 </defs>
 <g id="Camada_x0020_1">
  <metadata id="CorelCorpID_0Corel-Layer"/>
  <g id="_2578606066656">
   <g>
    <path class="fil0" d="M17456.71 8102.06c-258.41,0 -507.06,-32.31 -745.95,-96.91 -238.88,-64.6 -433.45,-147.98 -583.69,-250.14l292.97 -658.06c141.23,90.13 304.25,164.52 489.05,223.11 184.8,58.6 368.83,87.89 552.13,87.89 123.19,0 222.35,-11.28 297.48,-33.8 75.11,-22.55 129.96,-52.59 164.52,-90.16 34.55,-37.55 51.82,-81.88 51.82,-132.96 0,-72.12 -33.06,-129.21 -99.15,-171.27 -66.12,-42.07 -151.74,-76.63 -256.92,-103.66 -105.16,-27.05 -221.6,-54.09 -349.3,-81.14 -127.72,-27.05 -255.42,-61.6 -383.12,-103.66 -127.71,-42.07 -244.15,-96.91 -349.32,-164.52 -105.16,-67.61 -190.81,-156.25 -256.9,-265.94 -66.12,-109.66 -99.17,-248.63 -99.17,-416.91 0,-189.3 51.84,-360.58 155.5,-513.82 103.68,-153.25 259.18,-276.45 466.5,-369.59 207.35,-93.15 465.74,-139.73 775.25,-139.73 207.32,0 410.9,23.29 610.73,69.87 199.82,46.57 377.86,114.93 534.11,205.08l-274.95 662.55c-150.25,-81.12 -298.97,-141.98 -446.21,-182.54 -147.23,-40.56 -289.97,-60.84 -428.19,-60.84 -123.19,0 -222.36,12.76 -297.48,38.3 -75.11,25.55 -129.2,59.36 -162.25,101.42 -33.06,42.07 -49.58,90.15 -49.58,144.24 0,69.1 32.29,123.94 96.89,164.5 64.62,40.57 150.24,73.63 256.92,99.17 106.67,25.53 223.86,51.82 351.56,78.87 127.7,27.05 255.42,60.84 383.13,101.42 127.7,40.56 244.14,94.64 349.3,162.25 105.17,67.62 190.05,156.25 254.67,265.94 64.6,109.67 96.89,247.13 96.89,412.4 0,183.3 -51.82,352.31 -155.49,507.07 -103.68,154.75 -258.41,278.69 -464.26,371.84 -205.82,93.15 -464.99,139.73 -777.49,139.73zm3263.24 0c-465.74,0 -829.33,-127.7 -1090.74,-383.12 -261.42,-255.41 -392.14,-617.48 -392.14,-1086.23l0 -1748.82 892.44 0 0 1721.76c0,270.45 53.33,464.25 160.01,581.43 106.67,117.19 253.15,175.79 439.45,175.79 186.3,0 332.03,-58.6 437.21,-175.79 105.16,-117.18 157.75,-310.98 157.75,-581.43l0 -1721.76 878.9 0 0 1748.82c0,468.75 -130.71,830.82 -392.12,1086.23 -261.43,255.42 -625,383.12 -1090.76,383.12zm2086.86 -63.1l0 -3155.07 1613.57 0c414.67,0 724.18,75.88 928.51,227.62 204.33,151.74 306.49,350.82 306.49,597.2 0,162.28 -42.82,304.25 -128.47,425.95 -85.62,121.69 -205.82,217.84 -360.58,288.46 -154.73,70.6 -338.78,105.91 -552.13,105.91l90.15 -216.35c222.35,0 416.17,33.81 581.43,101.42 165.27,67.61 293.72,165.27 385.37,292.97 91.65,127.7 137.47,283.2 137.47,466.51 0,273.43 -110.43,486.02 -331.28,637.76 -220.85,151.74 -543.12,227.62 -966.8,227.62l-1703.73 0zm883.41 -644.53l748.2 0c153.26,0 269.68,-26.31 349.32,-78.88 79.62,-52.59 119.43,-132.97 119.43,-241.15 0,-108.17 -39.81,-188.54 -119.43,-241.12 -79.64,-52.59 -196.06,-78.88 -349.32,-78.88l-811.3 0 0 -617.5 676.08 0c150.24,0 262.92,-25.53 338.05,-76.63 75.11,-51.07 112.68,-127.7 112.68,-229.86 0,-102.17 -37.57,-178.03 -112.68,-227.61 -75.13,-49.59 -187.81,-74.38 -338.05,-74.38l-612.98 0 0 1866.01zm2582.66 644.53l0 -3155.07 892.44 0 0 2447.43 1505.4 0 0 707.64 -2397.84 0zm2749.42 0l0 -3155.07 892.44 0 0 3155.07 -892.44 0zm3948.33 0l0 -3155.07 450.72 0 0 3155.07 -450.72 0zm-2262.63 0l0 -3155.07 450.71 0 0 3155.07 -450.71 0zm405.65 -1406.25l0 -392.15 1897.54 0 0 392.15 -1897.54 0zm4678.51 1442.3c-240.38,0 -463.5,-40.56 -669.32,-121.7 -205.83,-81.12 -383.88,-194.54 -534.12,-340.28 -150.25,-145.74 -267.43,-316.26 -351.56,-511.57 -84.13,-195.32 -126.21,-408.66 -126.21,-640.03 0,-231.38 42.08,-444.73 126.21,-640.04 84.13,-195.31 201.31,-365.84 351.56,-511.55 150.24,-145.74 327.52,-259.19 531.85,-340.31 204.33,-81.13 428.19,-121.69 671.59,-121.69 240.38,0 461.99,39.81 664.81,119.43 202.83,79.64 380.11,192.32 531.85,338.06 151.74,145.71 268.93,316.24 351.57,511.55 82.63,195.33 123.96,410.18 123.96,644.55 0,234.38 -41.33,449.22 -123.96,644.54 -82.64,195.31 -199.83,365.83 -351.57,511.57 -151.74,145.72 -329.02,258.41 -531.85,338.04 -202.82,79.62 -424.43,119.43 -664.81,119.43zm0 -401.14c174.28,0 335.79,-30.05 484.52,-90.14 148.75,-60.11 277.95,-144.98 387.63,-254.67 109.67,-109.67 195.31,-238.12 256.9,-385.37 61.61,-147.23 92.4,-307.99 92.4,-482.26 0,-174.28 -30.79,-335.04 -92.4,-482.27 -61.59,-147.24 -147.23,-275.71 -256.9,-385.37 -109.68,-109.69 -238.88,-194.57 -387.63,-254.66 -148.73,-60.11 -310.24,-90.15 -484.52,-90.15 -177.28,0 -340.3,30.04 -489.03,90.15 -148.75,60.09 -278.7,144.97 -389.88,254.66 -111.18,109.66 -197.58,238.13 -259.16,385.37 -61.61,147.23 -92.4,307.99 -92.4,482.27 0,174.27 30.79,335.03 92.4,482.26 61.58,147.25 147.98,275.7 259.16,385.37 111.18,109.69 241.13,194.56 389.88,254.67 148.73,60.09 311.75,90.14 489.03,90.14zm3668.89 401.14c-414.67,0 -740.7,-118.69 -978.08,-356.07 -237.37,-237.37 -356.08,-584.43 -356.08,-1041.17l0 -1793.88 450.74 0 0 1775.85c0,351.56 77.38,608.48 232.11,770.74 154.75,162.27 373.36,243.39 655.81,243.39 285.45,0 505.57,-81.12 660.31,-243.39 154.75,-162.26 232.13,-419.18 232.13,-770.74l0 -1775.85 437.19 0 0 1793.88c0,456.74 -117.94,803.8 -353.81,1041.17 -235.87,237.38 -562.65,356.07 -980.32,356.07zm3177.61 0c-240.4,0 -470.27,-36.8 -689.62,-110.42 -219.35,-73.61 -392.12,-169.02 -518.33,-286.21l166.77 -351.57c120.2,105.18 273.43,192.31 459.73,261.43 186.31,69.11 380.11,103.66 581.45,103.66 183.28,0 332.03,-21.02 446.21,-63.1 114.17,-42.07 198.32,-99.92 252.41,-173.54 54.08,-73.61 81.11,-156.99 81.11,-250.14 0,-108.17 -35.3,-195.31 -105.9,-261.43 -70.62,-66.09 -162.28,-119.43 -274.96,-159.99 -112.67,-40.58 -236.62,-75.88 -371.84,-105.93 -135.22,-30.04 -271.19,-65.34 -407.91,-105.92 -136.72,-40.56 -261.41,-92.4 -374.09,-155.5 -112.68,-63.11 -203.58,-147.98 -272.69,-254.66 -69.11,-106.67 -103.66,-244.14 -103.66,-412.4 0,-162.27 42.81,-311.75 128.45,-448.47 85.63,-136.72 217.86,-246.41 396.63,-329.04 178.8,-82.63 406.42,-123.94 682.85,-123.94 183.3,0 365.09,24.04 545.38,72.12 180.29,48.06 336.54,117.19 468.75,207.32l-148.73 360.58c-135.22,-90.13 -277.95,-155.5 -428.19,-196.06 -150.25,-40.56 -295.98,-60.86 -437.21,-60.86 -177.28,0 -323.02,22.55 -437.19,67.61 -114.2,45.07 -197.58,105.18 -250.17,180.29 -52.57,75.14 -78.87,159.27 -78.87,252.41 0,111.19 35.3,199.83 105.93,265.92 70.6,66.12 162.25,118.71 274.93,157.77 112.68,39.06 236.64,74.36 371.84,105.9 135.23,31.57 271.2,66.87 407.91,105.93 136.72,39.06 261.43,90.15 374.11,153.26 112.68,63.1 203.58,147.23 272.69,252.39 69.11,105.18 103.66,240.4 103.66,405.67 0,159.24 -43.57,307.24 -130.71,443.96 -87.14,136.72 -221.6,246.38 -403.4,329.02 -181.79,82.63 -410.91,123.94 -687.34,123.94zm1879.51 -36.05l0 -3155.07 2226.57 0 0 392.14 -1775.85 0 0 2370.81 1838.95 0 0 392.12 -2289.67 0zm410.16 -1410.76l0 -383.13 1622.61 0 0 383.13 -1622.61 0z"/>
    <path class="fil0" d="M17475.18 9566.65l0 187.83 -392.42 0 0 -187.83 392.42 0zm1944.07 402.03l0 194.98 -509.83 0 0 -194.98 509.83 0zm-436.68 -978.13l0 1173.11 -235.95 0 0 -1173.11 235.95 0zm368.21 475.46l0 189.46 -441.36 0 0 -189.46 441.36 0zm66.81 -475.46l0 195.8 -508.17 0 0 -195.8 508.17 0zm1325.07 864.84c0,-20.9 -1.64,-40.15 -5.5,-57.19 -3.85,-17.33 -11.82,-33.29 -23.92,-47.58 -11.83,-14.57 -29.43,-29.15 -52.25,-43.72 -22.83,-14.57 -52.52,-29.43 -89.09,-45.1 -43.46,-18.15 -85.54,-37.66 -126.51,-58.58 -40.69,-20.62 -77.54,-44.54 -110.26,-72.04 -32.72,-27.51 -58.58,-59.67 -77.83,-97.06 -18.97,-37.42 -28.6,-81.4 -28.6,-132.01 0,-49.5 9.07,-94.32 26.95,-134.47 18.15,-40.43 43.73,-75.08 77.01,-103.66 33.26,-28.89 72.3,-50.89 117.13,-66.55 45.1,-15.68 95.15,-23.38 150.43,-23.38 75.08,0 140.24,15.67 195.24,46.75 55.28,31.07 97.9,73.69 128.15,127.87 30.25,54.18 45.65,116.33 45.65,186.72l-235.41 0c0,-33.28 -4.66,-62.71 -14.01,-88 -9.35,-25.57 -24.21,-45.37 -44.82,-59.94 -20.36,-14.31 -46.76,-21.74 -78.93,-21.74 -29.97,0 -55.01,6.06 -74.52,18.15 -19.53,12.1 -34.1,28.6 -43.46,49.24 -9.33,20.61 -14.01,43.98 -14.01,69.84 0,19.25 4.68,36.57 14.01,51.97 9.36,15.39 22.57,28.88 39.07,40.97 16.76,12.1 36.29,23.93 59.11,35.21 22.83,11.28 48.12,22.26 75.34,33 53.36,21.18 100.39,44 141.08,69.01 40.71,25.03 75.07,53.08 102.3,83.87 27.5,30.81 48.11,65.72 62.14,104.5 14.03,38.51 20.9,82.77 20.9,132.27 0,48.96 -8.51,93.22 -25.29,133.37 -17.05,39.89 -41.54,74.53 -73.69,103.12 -32.46,28.89 -71.23,50.89 -116.61,66.56 -45.37,15.66 -95.97,23.37 -151.8,23.37 -54.16,0 -105.59,-7.71 -153.99,-23.1 -48.11,-15.12 -90.75,-38.51 -127.59,-70.12 -36.85,-31.36 -65.74,-71.22 -86.63,-119.9 -20.9,-48.68 -31.34,-106.41 -31.34,-172.96l235.93 0c0,35.47 3.59,65.72 10.46,90.73 7.14,25.04 17.86,44.83 32.17,59.68 14.58,14.86 32.44,25.86 53.62,33 21.18,7.15 45.65,11.01 72.87,11.01 31.36,0 56.11,-6.07 74.53,-17.89 18.69,-11.82 31.9,-27.5 39.87,-47.57 8.25,-19.8 12.1,-42.34 12.1,-67.65zm1551.66 -864.84l0 1173.11 -234.57 0 0 -1173.11 234.57 0zm291.49 0l0 195.8 -812.05 0 0 -195.8 812.05 0zm1155.39 209.27l-252.16 963.84 -249.14 0 366.57 -1173.11 155.63 0 -20.9 209.27zm198.81 963.84l-253.81 -963.84 -23.36 -209.27 158.12 0 369.58 1173.11 -250.53 0zm9.1 -438.33l0 195.78 -529.37 0 0 -195.78 529.37 0zm1126.79 -734.78l207.08 0 239.24 802.43 238.69 -802.43 182.86 0 -333.55 1173.11 -176.55 0 -357.77 -1173.11zm-83.59 0l197.45 0 30.51 773.54 0 399.57 -227.96 0 0 -1173.11zm861.27 0l197.98 0 0 1173.11 -227.13 0 0 -399.57 29.15 -773.54zm1479.88 758.97l-240.08 0 0 -195.78 240.08 0c33.81,0 61.05,-7.43 82.23,-22.56 20.89,-14.84 36.29,-35.76 45.91,-62.15 9.63,-26.66 14.31,-56.65 14.31,-89.65 0,-33.83 -4.68,-65.44 -14.31,-94.87 -9.62,-29.69 -25.02,-53.34 -45.91,-71.22 -21.18,-17.87 -48.42,-26.94 -82.23,-26.94l-163.62 0 0 977.31 -235.94 0 0 -1173.11 399.56 0c78.91,0 146.84,16.5 203.49,49.78 56.65,33.26 100.09,79.19 130.88,137.21 30.54,58.31 45.93,125.12 45.93,200.19 0,75.62 -15.39,141.08 -45.93,196.62 -30.79,55.55 -74.23,98.73 -130.88,129.26 -56.65,30.51 -124.58,45.91 -203.49,45.91zm1510.69 -549.7l-252.17 963.84 -249.14 0 366.57 -1173.11 155.63 0 -20.89 209.27zm198.81 963.84l-253.82 -963.84 -23.36 -209.27 158.12 0 369.58 1173.11 -250.52 0zm9.09 -438.33l0 195.78 -529.37 0 0 -195.78 529.37 0zm1044.02 -734.78l376.19 0c78.37,0 145.19,13.47 200.47,40.15 55.55,26.95 97.9,66.82 127.31,119.33 29.71,52.54 44.28,117.44 44.28,194.7 0,63.53 -8.53,117.71 -25.57,162.52 -17.32,44.82 -41.79,81.96 -73.43,111.93 -31.62,29.69 -69.57,53.35 -113.56,71.22l-71.78 42.62 -305.24 0 -0.83 -195.78 211.74 0c32.46,0 59.14,-7.15 80.32,-21.18 21.16,-14.29 37.11,-34.39 47.55,-60.5 10.46,-26.12 15.68,-56.37 15.68,-91.3 0,-37.12 -4.68,-68.75 -14.01,-95.43 -9.64,-26.66 -24.21,-47.01 -44.56,-61.04 -20.08,-14.3 -46.19,-21.44 -78.37,-21.44l-140.24 0 0 977.31 -235.95 0 0 -1173.11zm532.38 1173.11l-215.03 -523.3 247.21 -0.83 219.99 512.85 0 11.28 -252.17 0zm1314.62 -1173.11l0 1173.11 -234.3 0 0 -1173.11 234.3 0zm1330.28 209.27l-252.17 963.84 -249.13 0 366.56 -1173.11 155.64 0 -20.9 209.27zm198.81 963.84l-253.81 -963.84 -23.37 -209.27 158.12 0 369.58 1173.11 -250.52 0zm9.09 -438.33l0 195.78 -529.36 0 0 -195.78 529.36 0zm1729.59 438.33l-207.08 0 1.66 -194.98 205.42 0c56.93,0 101.19,-10.16 132.81,-30.51 31.91,-20.63 54.18,-52.79 67.39,-96.8 13.18,-44 19.79,-101.75 19.79,-173.25l0 -182.85c0,-54.18 -3.57,-100.39 -10.46,-138.33 -7.15,-37.68 -18.97,-68.47 -35.47,-91.84 -16.76,-23.11 -39.04,-40.43 -66.83,-51.99 -28.04,-11.26 -62.69,-16.76 -103.94,-16.76l-214.49 0 0 -195.8 214.49 0c67.65,0 128.98,11 184.52,33 55.28,22 102.86,54.18 142.44,96.25 39.89,42.34 70.4,94.31 91.86,155.92 21.44,61.86 32.18,132.26 32.18,211.19l0 181.21c0,79.47 -10.74,149.87 -32.18,211.19 -21.46,61.05 -51.97,112.76 -91.29,155.09 -39.61,42.08 -87.18,74.26 -143.01,96.26 -55.82,22 -118.52,33 -187.81,33zm-70.12 -1173.11l0 1173.11 -235.95 0 0 -1173.11 235.95 0zm1631.41 0l0 1173.11 -234.3 0 0 -1173.11 234.3 0zm1687.77 557.95l0 482.89c-16.5,17.61 -40.97,38.22 -72.87,61.33 -31.9,23.36 -73.71,43.72 -124.86,61.32 -51.41,17.33 -113.84,26.12 -187.27,26.12 -65.16,0 -124.01,-10.18 -176.81,-30.53 -53.07,-20.62 -98.44,-51.41 -136.12,-93.22 -37.96,-41.52 -66.82,-93.77 -86.62,-156.2 -20.07,-62.69 -29.98,-136.94 -29.98,-222.74l0 -199.91c0,-84.69 9.63,-158.67 28.6,-221.92 19.25,-63.25 47.03,-115.5 83.61,-157.58 36.29,-41.79 80.01,-72.87 130.88,-93.48 50.6,-20.36 108.08,-30.53 171.87,-30.53 88,0 160.59,14.85 217.24,44.28 56.65,29.69 99.55,73.41 128.71,131.44 29.41,58.02 47.01,129.24 52.8,213.67l-227.98 0c-3.84,-49.5 -11.83,-88.27 -24.47,-116.05 -12.65,-28.04 -30.25,-48.12 -52.8,-60.22 -22.54,-12.1 -51.97,-18.15 -87.72,-18.15 -31.35,0 -58.29,5.5 -81.4,16.5 -23.1,11 -42.61,28.87 -58.03,53.62 -15.66,24.75 -27.22,56.37 -34.65,95.15 -7.69,38.5 -11.26,85.8 -11.26,141.62l0 201.56c0,55.29 4.12,102.58 12.93,141.62 8.51,39.33 21.16,71.22 38.22,95.98 16.76,24.75 38.22,42.61 64.34,53.61 26.13,11 56.92,16.5 92.39,16.5 28.33,0 51.15,-3.01 68.48,-8.79 17.06,-6.04 30.81,-12.37 41.53,-18.97 10.44,-6.6 18.97,-11.82 26.12,-15.68l0 -215.31 -168.57 0 0 -177.93 403.69 0zm1104.53 -557.95l0 1173.11 -234.3 0 0 -1173.11 234.3 0zm1334.95 0l0 1173.11 -234.56 0 0 -1173.11 234.56 0zm291.49 0l0 195.8 -812.04 0 0 -195.8 812.04 0zm1155.4 209.27l-252.17 963.84 -249.13 0 366.56 -1173.11 155.64 0 -20.9 209.27zm198.81 963.84l-253.81 -963.84 -23.37 -209.27 158.12 0 369.58 1173.11 -250.52 0zm9.09 -438.33l0 195.78 -529.36 0 0 -195.78 529.36 0zm1694.1 243.35l0 194.98 -487.55 0 0 -194.98 487.55 0zm-414.95 -978.13l0 1173.11 -235.94 0 0 -1173.11 235.94 0zm2018.87 576.1l0 187.83 -392.42 0 0 -187.83 392.42 0z"/>
   </g>
   <path class="fil1" d="M9588.16 2386.03c2923.72,430 4957.09,3068.35 4541.67,5892.94 -415.42,2824.6 -3122.31,4765.79 -6046.03,4335.8 -2923.72,-430 -4957.09,-3068.35 -4541.67,-5892.95 415.41,-2824.59 3122.3,-4765.78 6046.03,-4335.79z"/>
   <path class="fil2 str0" d="M9510.54 2910.21c2533.12,372.55 4284.6,2728.05 3912.05,5261.17 -372.55,2533.12 -2728.05,4284.6 -5261.17,3912.05 -2533.12,-372.55 -4284.6,-2728.06 -3912.05,-5261.17 372.55,-2533.12 2728.06,-4284.6 5261.17,-3912.05z"/>
   <path class="fil3 str1" d="M7289.96 8458.22l1038.39 0.04 -889.56 3761.87c-342.03,-76.58 -1389.92,-121.67 -1980.15,-27.54 508.09,-967.65 1414.71,-2735.93 1831.32,-3734.37z"/>
   <polygon class="fil4 str1" points="7438.75,12220.13 8300.56,8458.26 9289.08,8458.3 9822.67,12256.5 8614.97,12286.73 "/>
   <path class="fil5 str1" d="M9769.46 12257.82c-148.27,-902.05 -429.49,-2947.48 -480.43,-3799.52 359.7,-1.28 753.35,-0.82 1113.05,-2.1 301.6,989.07 1216.22,2730.94 1809.89,3763.88 -623.26,191.66 -1635.46,33.77 -2442.51,37.74z"/>
   <path class="fil6" d="M5640.41 9451.07c-152.89,-45.25 -248.86,-38.61 -328.38,-134.97 -67.88,-82.25 -127.7,-270.61 -131.13,-365.39 -18.39,-506.94 -18.51,-1024.44 -20.89,-1531.71 13.95,-45.71 -59.86,-380.54 545.16,-608.04 2071.55,-2.01 4153.5,1.93 6225.05,-0.09 162.04,32.73 289.89,87.39 393.25,186.09 99.39,94.91 173.15,235.88 188.47,373.68 -0.12,532.25 -16.43,1099.16 -16.56,1631.41 -20.98,145.69 -101.23,282.96 -176.94,341.54 -77.81,60.22 -146.5,104.18 -252.51,96.96 -0.01,98.71 -2.21,94.59 -2.24,193.3 -221.14,-0.04 -589.64,-5.87 -810.78,-5.92 99.48,-394.05 88.16,-830.42 58.26,-1215.25 -61.7,-109.81 -92.3,-119.69 -198.33,-177.66 -1461.83,-0.34 -3038.07,-5.09 -4499.89,-5.43 -166.51,17.2 -218.15,108.46 -236.75,236.65 -28.83,396.06 -93.11,918.89 63.92,1155.67 -234.89,-0.06 -554.33,12.26 -789.22,12.2 0.02,-74.96 -10.51,-108.07 -10.49,-183.04zm6246.98 -2166.57c118.87,0.03 215.21,96.41 215.18,215.28 -0.03,118.86 -96.41,215.2 -215.28,215.17 -118.86,-0.02 -215.2,-96.41 -215.17,-215.27 0.02,-118.87 96.41,-215.21 215.27,-215.18zm-731.75 0.35c118.87,0.02 215.21,96.41 215.18,215.28 -0.03,118.86 -96.41,215.2 -215.28,215.17 -118.87,-0.03 -215.2,-96.41 -215.17,-215.28 0.02,-118.86 96.4,-215.2 215.27,-215.17zm-723.11 0.54c118.92,0.02 215.29,96.45 215.27,215.37 -0.03,118.9 -96.45,215.29 -215.37,215.26 -118.92,-0.02 -215.29,-96.45 -215.27,-215.36 0.03,-118.92 96.45,-215.3 215.37,-215.27zm-1564.75 -30.49c150.48,0.03 272.43,122.03 272.39,272.49 -0.03,150.48 -122.04,272.42 -272.51,272.38 -150.46,-0.03 -272.41,-122.03 -272.37,-272.51 0.03,-150.45 122.04,-272.4 272.49,-272.36z"/>
   <path class="fil6" d="M6326.41 5909.8l667.9 0.15 -0.16 706.07 -667.9 -0.16 0.16 -706.06zm4331.78 1l706.07 0.16 -0.17 706.07 -706.06 -0.17 0.16 -706.06z"/>
   <path class="fil6" d="M6655.01 9382.32c-110.49,-61.06 -78.5,-386.52 -72.64,-538l14.89 -385.57 465.39 0.05 -407.64 923.52z"/>
   <polygon class="fil6" points="7173.39,6600.03 10488.12,6616.76 10498.4,4587.33 7183.64,4570.6 "/>
   <path class="fil6" d="M10994.48 9382.1c110.49,-61.06 88.11,-383.85 82.27,-535.32l-14.94 -387.98 -466.68 0 399.35 923.3z"/>
  </g>
 </g>
</svg>
